<?xml version="1.0" encoding="UTF-8" standalone="no"?>
<!DOCTYPE svg PUBLIC "-//W3C//DTD SVG 1.1//EN" "http://www.w3.org/Graphics/SVG/1.1/DTD/svg11.dtd">
<svg width="100%" height="100%" viewBox="0 0 183 65" version="1.1" xmlns="http://www.w3.org/2000/svg" xmlns:xlink="http://www.w3.org/1999/xlink" xml:space="preserve" xmlns:serif="http://www.serif.com/" style="fill-rule:evenodd;clip-rule:evenodd;stroke-linejoin:round;stroke-miterlimit:2;">
    <g transform="matrix(4.16667,0,0,4.16667,-0.769583,-1.70146)">
        <g id="Layer-1" serif:id="Layer 1">
            <g transform="matrix(11,0,0,11,16.9404,11.2355)">
            </g>
            <text x="0px" y="11.235px" style="font-family:'CenturyGothic-Bold', 'Century Gothic', sans-serif;font-weight:700;font-size:11px;">arx</text>
            <g transform="matrix(11,0,0,11,43.7798,11.2355)">
            </g>
            <text x="23.096px" y="11.235px" style="font-family:'CenturyGothic-Bold', 'Century Gothic', sans-serif;font-weight:700;font-size:11px;">one</text>
            <g transform="matrix(1,0,0,1,21.3067,8.1721)">
                <path d="M0,0C0,0.809 -0.656,1.466 -1.467,1.466C-2.275,1.466 -2.932,0.809 -2.932,0C-2.932,-0.81 -2.275,-1.466 -1.467,-1.466C-0.656,-1.466 0,-0.81 0,0" style="fill:rgb(246,140,30);fill-rule:nonzero;"/>
            </g>
            <g transform="matrix(1,0,0,1,19.8404,13.9146)">
                <path d="M0,0.57C-0.856,0.57 -1.671,0.398 -2.416,0.089L-2.966,1.417C-2.052,1.796 -1.051,2.007 0,2.007C2.687,2.007 5.053,0.64 6.443,-1.437L4.607,-1.437C3.455,-0.204 1.82,0.57 0,0.57" style="fill:rgb(246,140,30);fill-rule:nonzero;"/>
            </g>
            <g transform="matrix(1,0,0,1,19.8404,2.4286)">
                <path d="M0,-0.569C0.856,-0.569 1.671,-0.397 2.415,-0.088L2.965,-1.416C2.052,-1.795 1.051,-2.006 0,-2.006C-2.686,-2.006 -5.052,-0.639 -6.442,1.437L-4.606,1.437C-3.454,0.205 -1.819,-0.569 0,-0.569" style="fill:rgb(246,140,30);fill-rule:nonzero;"/>
            </g>
        </g>
    </g>
</svg>