<svg width="100" height="45" viewBox="0 0 100 45" fill="none" xmlns="http://www.w3.org/2000/svg">
<g id="a" clip-path="url(#clip0_954_1677)">
<path id="Vector" d="M19.1407 26.1165H17.949C16.8691 26.1165 15.855 25.5721 15.2237 24.653L9.88127 16.8823C8.89456 15.4227 7.80097 13.7033 6.87763 12.1562C6.83289 12.0818 6.74342 12.0531 6.66637 12.0883C6.59305 12.1209 6.5508 12.2019 6.56571 12.2841C6.72602 13.1615 6.72602 14.8626 6.72602 16.8823V22.585C6.72602 24.5355 5.22109 26.1165 3.36448 26.1165C1.50786 26.1165 0.00293276 24.5355 0.00293276 22.585V3.60087C0.000447332 1.65037 1.50537 0.0693359 3.36199 0.0693359H3.85162C4.92533 0.0693359 5.93441 0.608532 6.56695 1.51981L12.66 10.2906C13.7113 11.8298 15.2523 14.4736 15.7407 15.4214L15.9656 15.3026C15.778 14.4736 15.778 12.4212 15.778 10.2906V3.60087C15.778 1.65037 17.2829 0.0693359 19.1395 0.0693359C20.9961 0.0693359 22.501 1.65037 22.501 3.60087V22.5837C22.501 24.5342 20.9961 26.1152 19.1395 26.1152L19.1407 26.1165Z" fill="white"/>
<path id="Vector_2" d="M73.3273 18.2532C74.1984 19.3015 74.6334 20.4491 74.6334 21.6933C74.6334 22.9375 74.2345 23.9872 73.4366 24.8384C72.6388 25.6909 71.6583 26.1165 70.4989 26.1165C69.2214 26.1165 68.0607 25.3789 67.0155 23.9049L63.5322 18.9895H63.0973L59.6139 23.9049C58.5688 25.3789 57.4081 26.1165 56.1318 26.1165C54.9699 26.1165 53.9907 25.6909 53.1928 24.8384C52.3938 23.9872 51.9961 22.9388 51.9961 21.6933C51.9961 20.3838 52.431 19.2362 53.3022 18.2532L58.0916 12.8468L54.1733 7.93272C53.1568 6.62324 52.6498 5.47566 52.6498 4.49257C52.6498 3.24837 53.0487 2.20001 53.8465 1.34748C54.6443 0.496254 55.6236 0.0693359 56.7855 0.0693359C58.2942 0.0693359 59.5282 0.806976 60.4863 2.28095L63.0985 6.2133H63.5335L66.1456 2.28095C67.1038 0.806976 68.3365 0.0693359 69.8464 0.0693359C71.0071 0.0693359 71.9864 0.494948 72.7855 1.34748C73.5833 2.20001 73.9822 3.24837 73.9822 4.49257C73.9822 5.44302 73.4739 6.5893 72.4586 7.93272L68.7578 12.8468L73.3285 18.2532H73.3273Z" fill="white"/>
<path id="Vector_3" d="M92.9558 21.3406H85.3293L84.7315 23.5745C84.3289 25.0772 83.0253 26.1164 81.539 26.1164C79.2487 26.1164 77.6331 23.7546 78.3626 21.4738L83.9822 3.92319C84.7203 1.61887 86.7745 0.0678711 89.0885 0.0678711H89.3768C91.559 0.0678711 93.4964 1.53532 94.1861 3.71038L99.8243 21.4803C100.548 23.7612 98.932 26.1164 96.6442 26.1164C95.1989 26.1164 93.9313 25.0993 93.5511 23.6345L92.9558 21.3406ZM91.5665 16.0518L89.9136 9.77601C89.6887 8.90781 89.3495 7.52653 89.2376 6.61786H89.0872C88.9741 7.52522 88.5989 8.9065 88.3739 9.81517L86.7211 16.0505H91.5677L91.5665 16.0518Z" fill="white"/>
<g id="Group">
<path id="Vector_4" d="M0.137695 31.3983H4.70219C7.98917 31.3983 10.2422 33.4793 10.2422 36.6753C10.2422 39.8714 7.98917 41.9524 4.70219 41.9524H0.137695V31.397V31.3983ZM4.58661 39.9471C6.58117 39.9471 7.88726 38.695 7.88726 36.6753C7.88726 34.6556 6.58117 33.4036 4.58661 33.4036H2.46281V39.9471H4.58661Z" fill="white"/>
<path id="Vector_5" d="M11.332 31.3985C11.332 30.6596 11.8913 30.0864 12.7239 30.0864C13.5565 30.0864 14.1157 30.6295 14.1157 31.3528C14.1157 32.1375 13.5565 32.7093 12.7239 32.7093C11.8913 32.7093 11.332 32.1362 11.332 31.3972V31.3985ZM11.6054 33.8412H13.8448V41.954H11.6054V33.8412Z" fill="white"/>
<path id="Vector_6" d="M23.661 33.841V40.5959C23.661 43.6118 22.1114 44.9983 19.3264 44.9983C17.8625 44.9983 16.4421 44.621 15.5374 43.882L16.4272 42.1926C17.0871 42.7501 18.1645 43.1131 19.1537 43.1131C20.732 43.1131 21.4217 42.3598 21.4217 40.8962V40.5489C20.8326 41.2278 19.9863 41.5594 18.9822 41.5594C16.8435 41.5594 15.1211 40.0058 15.1211 37.6389C15.1211 35.2719 16.8435 33.7183 18.9822 33.7183C20.0584 33.7183 20.9482 34.0956 21.5372 34.8789V33.8384H23.661V33.841ZM21.4502 37.6402C21.4502 36.4495 20.604 35.6492 19.4259 35.6492C18.2478 35.6492 17.3878 36.4482 17.3878 37.6402C17.3878 38.8321 18.249 39.6311 19.4259 39.6311C20.6027 39.6311 21.4502 38.8321 21.4502 37.6402Z" fill="white"/>
<path id="Vector_7" d="M25.2402 31.3985C25.2402 30.6596 25.7995 30.0864 26.6321 30.0864C27.4647 30.0864 28.0239 30.6295 28.0239 31.3528C28.0239 32.1375 27.4647 32.7093 26.6321 32.7093C25.7995 32.7093 25.2402 32.1362 25.2402 31.3972V31.3985ZM25.5124 33.8412H27.7518V41.954H25.5124V33.8412Z" fill="white"/>
<path id="Vector_8" d="M34.5828 41.561C34.123 41.9082 33.4494 42.0741 32.7597 42.0741C30.9366 42.0741 29.8754 41.0936 29.8754 39.164V35.8322H28.6836V34.0227H29.8754V32.0474H32.1147V34.0227H34.0385V35.8322H32.1147V39.1339C32.1147 39.8272 32.4739 40.2045 33.0766 40.2045C33.4072 40.2045 33.7365 40.0987 33.9813 39.9029L34.584 41.561H34.5828Z" fill="white"/>
<path id="Vector_9" d="M42.4495 37.3244V41.9539H40.3543V40.9434C39.9379 41.6823 39.1339 42.074 38.0006 42.074C36.1924 42.074 35.1162 41.0191 35.1162 39.6156C35.1162 38.2122 36.0781 37.1886 38.4318 37.1886H40.2113C40.2113 36.1781 39.6372 35.5906 38.4318 35.5906C37.6141 35.5906 36.7665 35.8765 36.2073 36.3439L35.4033 34.7002C36.2496 34.067 37.4985 33.7197 38.7325 33.7197C41.0862 33.7197 42.4495 34.866 42.4495 37.3231V37.3244ZM40.2101 39.3898V38.5607H38.6741C37.6265 38.5607 37.2959 38.9681 37.2959 39.5112C37.2959 40.0987 37.7694 40.4917 38.5585 40.4917C39.3054 40.4917 39.9504 40.13 40.2089 39.3911L40.2101 39.3898Z" fill="white"/>
<path id="Vector_10" d="M44.2432 30.7651H46.4825V41.9538H44.2432V30.7651Z" fill="white"/>
<path id="Vector_11" d="M51.5335 40.9133L52.3226 39.0738C53.1689 39.7227 54.4327 40.1744 55.6382 40.1744C57.0163 40.1744 57.5755 39.6913 57.5755 39.0438C57.5755 37.0685 51.7335 38.4263 51.7335 34.5057C51.7335 32.7118 53.1117 31.2183 55.9675 31.2183C57.2301 31.2183 58.5225 31.5355 59.4545 32.153L58.7375 34.0082C57.8042 33.4508 56.8423 33.1792 55.9526 33.1792C54.5744 33.1792 54.0438 33.7223 54.0438 34.3855C54.0438 36.3308 59.8858 34.9887 59.8858 38.8636C59.8858 40.6274 58.4939 42.1353 55.6232 42.1353C54.0301 42.1353 52.4233 41.6379 51.5322 40.9146L51.5335 40.9133Z" fill="white"/>
<path id="Vector_12" d="M60.5186 37.8977C60.5186 35.455 62.313 33.7212 64.8246 33.7212C66.4463 33.7212 67.7238 34.4601 68.283 35.7866L66.547 36.7671C66.1307 35.9981 65.513 35.6508 64.8109 35.6508C63.6775 35.6508 62.7865 36.4798 62.7865 37.8977C62.7865 39.3155 63.6763 40.1445 64.8109 40.1445C65.5143 40.1445 66.1307 39.8129 66.547 39.0283L68.283 40.0231C67.7238 41.3195 66.4463 42.0742 64.8246 42.0742C62.313 42.0742 60.5186 40.3404 60.5186 37.8977Z" fill="white"/>
<path id="Vector_13" d="M77.1821 37.3099V41.9538H74.9427V37.6715C74.9427 36.3595 74.3686 35.7563 73.3781 35.7563C72.3019 35.7563 71.5265 36.4495 71.5265 37.9431V41.9538H69.2871V30.7651H71.5265V34.6857C72.1292 34.0525 72.9904 33.7209 73.9808 33.7209C75.8039 33.7209 77.1808 34.8372 77.1808 37.3099H77.1821Z" fill="white"/>
<path id="Vector_14" d="M78.4883 37.8977C78.4883 35.455 80.2828 33.7212 82.7371 33.7212C85.1915 33.7212 86.971 35.455 86.971 37.8977C86.971 40.3404 85.1915 42.0742 82.7371 42.0742C80.2828 42.0742 78.4883 40.3404 78.4883 37.8977ZM84.7031 37.8977C84.7031 36.4955 83.8568 35.6508 82.7371 35.6508C81.6174 35.6508 80.7562 36.4955 80.7562 37.8977C80.7562 39.2998 81.6174 40.1445 82.7371 40.1445C83.8568 40.1445 84.7031 39.2998 84.7031 37.8977Z" fill="white"/>
<path id="Vector_15" d="M87.6592 37.8977C87.6592 35.455 89.4537 33.7212 91.908 33.7212C94.3624 33.7212 96.1419 35.455 96.1419 37.8977C96.1419 40.3404 94.3624 42.0742 91.908 42.0742C89.4537 42.0742 87.6592 40.3404 87.6592 37.8977ZM93.874 37.8977C93.874 36.4955 93.0277 35.6508 91.908 35.6508C90.7883 35.6508 89.9271 36.4955 89.9271 37.8977C89.9271 39.2998 90.7883 40.1445 91.908 40.1445C93.0277 40.1445 93.874 39.2998 93.874 37.8977Z" fill="white"/>
<path id="Vector_16" d="M97.4053 30.7651H99.6446V41.9538H97.4053V30.7651Z" fill="white"/>
</g>
<g id="Group_2">
<path id="Vector_17" d="M45.8793 0H28.449C27.0468 0 25.9102 1.19417 25.9102 2.66726C25.9102 4.14034 27.0468 5.33451 28.449 5.33451H45.8793C47.2815 5.33451 48.4182 4.14034 48.4182 2.66726C48.4182 1.19417 47.2815 0 45.8793 0Z" fill="white"/>
<path id="Vector_18" d="M45.8793 20.7598H28.449C27.0468 20.7598 25.9102 21.9539 25.9102 23.427C25.9102 24.9001 27.0468 26.0943 28.449 26.0943H45.8793C47.2815 26.0943 48.4182 24.9001 48.4182 23.427C48.4182 21.9539 47.2815 20.7598 45.8793 20.7598Z" fill="white"/>
<path id="Vector_19" d="M45.2058 10.3794H33.3416C31.9394 10.3794 30.8027 11.5736 30.8027 13.0467C30.8027 14.5197 31.9394 15.7139 33.3416 15.7139H45.2058C46.608 15.7139 47.7447 14.5197 47.7447 13.0467C47.7447 11.5736 46.608 10.3794 45.2058 10.3794Z" fill="white"/>
</g>
</g>
<defs>
<clipPath id="clip0_954_1677">
<rect width="100" height="45" fill="white"/>
</clipPath>
</defs>
</svg>
